<svg xmlns="http://www.w3.org/2000/svg" width="129" height="129" style="width:100%;height:100%;transform:translate3d(0,0,0)"><defs><linearGradient id="o" x1="57.403" x2="126.374" y1="-.013" y2="1.05" gradientUnits="userSpaceOnUse" spreadMethod="pad"><stop offset="0%" stop-color="#E2E7F8" stop-opacity="0"/><stop offset="25%" stop-color="#C9D6FC" stop-opacity=".5"/><stop offset="50%" stop-color="#B1C5FF"/><stop offset="75%" stop-color="#B1C5FF" stop-opacity=".5"/><stop offset="100%" stop-color="#B1C5FF" stop-opacity="0"/></linearGradient><linearGradient id="n" x1="-100.106" x2="-49.499" y1="-60.565" y2="-35.764" gradientUnits="userSpaceOnUse" spreadMethod="pad"><stop offset="0%" stop-color="#E2E7F8" stop-opacity="0"/><stop offset="25%" stop-color="#C9D6FC" stop-opacity=".5"/><stop offset="50%" stop-color="#B1C5FF"/><stop offset="75%" stop-color="#B1C5FF" stop-opacity=".5"/><stop offset="100%" stop-color="#B1C5FF" stop-opacity="0"/></linearGradient><linearGradient id="m" x1="-64.054" x2="64.876" y1=".181" y2="-.185" gradientUnits="userSpaceOnUse" spreadMethod="pad"><stop offset="5%" stop-color="#446EFF"/><stop offset="28%" stop-color="#3982FF"/><stop offset="50%" stop-color="#2E96FF"/><stop offset="72%" stop-color="#6FADFF"/><stop offset="95%" stop-color="#B1C5FF"/></linearGradient><linearGradient id="k" x1="-64.054" x2="64.876" y1=".181" y2="-.185" gradientUnits="userSpaceOnUse" spreadMethod="pad"><stop offset="5%" stop-color="#446EFF"/><stop offset="28%" stop-color="#3982FF"/><stop offset="50%" stop-color="#2E96FF"/><stop offset="72%" stop-color="#6FADFF"/><stop offset="95%" stop-color="#B1C5FF"/></linearGradient><linearGradient id="l" x1="-112.594" x2="16.853" y1=".181" y2="-.185" gradientUnits="userSpaceOnUse" spreadMethod="pad"><stop offset="5%" stop-color="#446EFF"/><stop offset="28%" stop-color="#3982FF"/><stop offset="50%" stop-color="#2E96FF"/><stop offset="72%" stop-color="#6FADFF"/><stop offset="95%" stop-color="#B1C5FF"/></linearGradient><linearGradient id="j" x1="-64.054" x2="64.674" y1=".181" y2="-.243" gradientUnits="userSpaceOnUse" spreadMethod="pad"><stop offset="5%" stop-color="#446EFF"/><stop offset="28%" stop-color="#3982FF"/><stop offset="50%" stop-color="#2E96FF"/><stop offset="72%" stop-color="#6FADFF"/><stop offset="95%" stop-color="#B1C5FF"/></linearGradient><linearGradient id="h" x1="-64.054" x2="64.674" y1=".181" y2="-.243" gradientUnits="userSpaceOnUse" spreadMethod="pad"><stop offset="5%" stop-color="#446EFF"/><stop offset="28%" stop-color="#3982FF"/><stop offset="50%" stop-color="#2E96FF"/><stop offset="72%" stop-color="#6FADFF"/><stop offset="95%" stop-color="#B1C5FF"/></linearGradient><linearGradient id="i" x1="-64.054" x2="64.674" y1=".181" y2="-.243" gradientUnits="userSpaceOnUse" spreadMethod="pad"><stop offset="5%" stop-color="#446EFF"/><stop offset="28%" stop-color="#3982FF"/><stop offset="50%" stop-color="#2E96FF"/><stop offset="72%" stop-color="#6FADFF"/><stop offset="95%" stop-color="#B1C5FF"/></linearGradient><linearGradient id="g" x1="-64.054" x2="64.674" y1=".181" y2="-.243" gradientUnits="userSpaceOnUse" spreadMethod="pad"><stop offset="5%" stop-color="#446EFF"/><stop offset="28%" stop-color="#3982FF"/><stop offset="50%" stop-color="#2E96FF"/><stop offset="72%" stop-color="#6FADFF"/><stop offset="95%" stop-color="#B1C5FF"/></linearGradient><linearGradient id="f" x1="-33.149" x2="96.817" y1="0" y2="0" gradientUnits="userSpaceOnUse" spreadMethod="pad"><stop offset="5%" stop-color="#446EFF"/><stop offset="28%" stop-color="#3982FF"/><stop offset="50%" stop-color="#2E96FF"/><stop offset="72%" stop-color="#6FADFF"/><stop offset="95%" stop-color="#B1C5FF"/></linearGradient><linearGradient id="e" x1="-96.262" x2="33.111" y1=".181" y2="-.185" gradientUnits="userSpaceOnUse" spreadMethod="pad"><stop offset="5%" stop-color="#446EFF"/><stop offset="28%" stop-color="#3982FF"/><stop offset="50%" stop-color="#2E96FF"/><stop offset="72%" stop-color="#6FADFF"/><stop offset="95%" stop-color="#B1C5FF"/></linearGradient><linearGradient id="d" x1="-64.554" x2="64.674" y1="0" y2="0" gradientUnits="userSpaceOnUse" spreadMethod="pad"><stop offset="5%" stop-color="#446EFF"/><stop offset="28%" stop-color="#3982FF"/><stop offset="50%" stop-color="#2E96FF"/><stop offset="72%" stop-color="#6FADFF"/><stop offset="95%" stop-color="#B1C5FF"/></linearGradient><linearGradient id="b" x1="-42.14" x2="86.787" y1=".181" y2="-.243" gradientUnits="userSpaceOnUse" spreadMethod="pad"><stop offset="5%" stop-color="#446EFF"/><stop offset="28%" stop-color="#3982FF"/><stop offset="50%" stop-color="#2E96FF"/><stop offset="72%" stop-color="#6FADFF"/><stop offset="95%" stop-color="#B1C5FF"/></linearGradient><linearGradient id="c" x1="-86.448" x2="43.101" y1=".181" y2="-.243" gradientUnits="userSpaceOnUse" spreadMethod="pad"><stop offset="5%" stop-color="#446EFF"/><stop offset="28%" stop-color="#3982FF"/><stop offset="50%" stop-color="#2E96FF"/><stop offset="72%" stop-color="#6FADFF"/><stop offset="95%" stop-color="#B1C5FF"/></linearGradient><clipPath id="a"><path d="M0 0h129v129H0z"/></clipPath></defs><g clip-path="url(#a)"><g style="display:block"><path fill="url(#b)" d="m9.631 10.338.707-.707-19.969-19.969-.707.707L9.631 10.338z" transform="translate(42.474 42.771)"/><path fill="url(#c)" d="m-9.631-10.338-.707.707L9.631 10.338l.707-.707-19.969-19.969z" transform="translate(86.525 86.228)"/></g><path fill="url(#d)" d="M0-45.503c-25.131 0-45.503 20.372-45.503 45.503S-25.131 45.503 0 45.503 45.503 25.131 45.503 0 25.131-45.503 0-45.503zm0 90c-24.575 0-44.497-19.922-44.497-44.497S-24.575-44.497 0-44.497 44.497-24.575 44.497 0 24.575 44.497 0 44.497z" style="display:block" transform="translate(64.5 64.5)"/><path fill="url(#e)" d="M-.5 48.5h1v-97h-1v97z" style="display:block" transform="translate(96.5 64.5)"/><path fill="url(#f)" d="M-.5 48.5h1v-97h-1v97z" style="display:block" transform="translate(32.5 64.5)"/><path fill="url(#g)" d="M-48.5.5h97v-1h-97v1z" style="display:block" transform="translate(64.5 96.5)"/><g style="display:block"><path fill="url(#h)" d="M-.5 16.534h1v-33.068h-1v33.068z" transform="translate(64.5 112.466)"/><path fill="url(#i)" d="M-.5 16.534h1v-33.068h-1v33.068z" transform="translate(64.5 16.534)"/></g><path fill="url(#j)" d="M-48.5.5h97v-1h-97v1z" style="display:block" transform="translate(64.5 32.5)"/><g style="display:block"><path fill="url(#k)" d="M-16.5.5h33v-1h-33v1z" transform="translate(16.5 64.5)"/><path fill="url(#l)" d="M-16.499.5h32.998v-1h-32.998v1z" transform="translate(112.499 64.5)"/></g><path fill="url(#m)" d="M44.607-.006c-2.279-.127-4.393-.274-5.999-.489l-.001-.013a44.187 44.187 0 0 1-6.051-1.327l-.538-.164-.462-.143a43.993 43.993 0 0 1-3.745-1.393c-5.536-2.427-10.352-5.687-14.447-9.783-4.095-4.095-7.355-8.91-9.782-14.446a43.972 43.972 0 0 1-1.393-3.744l-.307-1A44.05 44.05 0 0 1 .556-38.56L.5-38.566c-.218-1.61-.367-3.743-.494-6.041-.129 2.236-.291 4.32-.514 6.114l.032-.004a43.017 43.017 0 0 1-1.354 5.989l-.317 1a42.689 42.689 0 0 1-1.437 3.744c-2.312 5.443-5.466 10.189-9.463 14.239l-.71.705c-3.985 3.863-8.632 6.957-13.942 9.285a44.12 44.12 0 0 1-3.745 1.393l-1 .307a44.252 44.252 0 0 1-6.051 1.327l-.054.5.054-.5c-1.618.223-3.783.372-6.112.502 2.221.128 4.291.288 6.077.509a42.747 42.747 0 0 1 10.831 3.129c5.535 2.351 10.351 5.574 14.446 9.669 4.095 4.095 7.318 8.91 9.669 14.446a42.83 42.83 0 0 1 1.437 3.745l.317 1a42.96 42.96 0 0 1 1.357 6.005l-.035-.004c.223 1.794.385 3.878.514 6.114.128-2.306.277-4.446.496-6.058l.054-.007a44.055 44.055 0 0 1 1.326-6.05l.307-1a44.12 44.12 0 0 1 1.393-3.745c2.328-5.31 5.423-9.958 9.286-13.942l.704-.711c4.05-3.997 8.796-7.151 14.239-9.462a42.709 42.709 0 0 1 3.745-1.437l1-.319A43.14 43.14 0 0 1 38.714.492l-.001-.008c1.745-.21 3.746-.366 5.894-.49zM10.536 10.632C6.12 15.048 2.61 20.221 0 26.115c-2.535-5.895-6.009-11.068-10.425-15.483-4.415-4.415-9.588-7.89-15.483-10.426 5.895-2.609 11.067-6.119 15.483-10.535C-6.009-14.744-2.535-19.917 0-25.812c2.61 5.895 6.12 11.067 10.536 15.483C14.952-5.913 20.125-2.403 26.019.206c-5.895 2.536-11.068 6.011-15.483 10.426z" style="display:block" transform="translate(64.444 64.349)"/><path fill="url(#n)" d="M44.607-.006c-2.279-.127-4.393-.274-5.999-.489l-.001-.013a44.187 44.187 0 0 1-6.051-1.327l-.538-.164-.462-.143a43.993 43.993 0 0 1-3.745-1.393c-5.536-2.427-10.352-5.687-14.447-9.783-4.095-4.095-7.355-8.91-9.782-14.446a43.972 43.972 0 0 1-1.393-3.744l-.307-1A44.05 44.05 0 0 1 .556-38.56L.5-38.566c-.218-1.61-.367-3.743-.494-6.041-.129 2.236-.291 4.32-.514 6.114l.032-.004a43.017 43.017 0 0 1-1.354 5.989l-.317 1a42.689 42.689 0 0 1-1.437 3.744c-2.312 5.443-5.466 10.189-9.463 14.239l-.71.705c-3.985 3.863-8.632 6.957-13.942 9.285a44.12 44.12 0 0 1-3.745 1.393l-1 .307a44.252 44.252 0 0 1-6.051 1.327l-.054.5.054-.5c-1.618.223-3.783.372-6.112.502 2.221.128 4.291.288 6.077.509a42.747 42.747 0 0 1 10.831 3.129c5.535 2.351 10.351 5.574 14.446 9.669 4.095 4.095 7.318 8.91 9.669 14.446a42.83 42.83 0 0 1 1.437 3.745l.317 1a42.96 42.96 0 0 1 1.357 6.005l-.035-.004c.223 1.794.385 3.878.514 6.114.128-2.306.277-4.446.496-6.058l.054-.007a44.055 44.055 0 0 1 1.326-6.05l.307-1a44.12 44.12 0 0 1 1.393-3.745c2.328-5.31 5.423-9.958 9.286-13.942l.704-.711c4.05-3.997 8.796-7.151 14.239-9.462a42.709 42.709 0 0 1 3.745-1.437l1-.319A43.14 43.14 0 0 1 38.714.492l-.001-.008c1.745-.21 3.746-.366 5.894-.49zM10.536 10.632C6.12 15.048 2.61 20.221 0 26.115c-2.535-5.895-6.009-11.068-10.425-15.483-4.415-4.415-9.588-7.89-15.483-10.426 5.895-2.609 11.067-6.119 15.483-10.535C-6.009-14.744-2.535-19.917 0-25.812c2.61 5.895 6.12 11.067 10.536 15.483C14.952-5.913 20.125-2.403 26.019.206c-5.895 2.536-11.068 6.011-15.483 10.426z" style="display:block" transform="translate(64.444 64.349)"/><path fill="url(#o)" d="M0-45.503c-25.131 0-45.503 20.372-45.503 45.503S-25.131 45.503 0 45.503 45.503 25.131 45.503 0 25.131-45.503 0-45.503zm0 90c-24.575 0-44.497-19.922-44.497-44.497S-24.575-44.497 0-44.497 44.497-24.575 44.497 0 24.575 44.497 0 44.497z" style="display:block" transform="translate(64.5 64.5)"/></g></svg>