<svg width="20" height="25" viewBox="0 0 20 25" fill="none" xmlns="http://www.w3.org/2000/svg">
<rect width="11.2065" height="11.2065" transform="matrix(0.866025 0.5 -0.866025 0.5 10 0)" fill="#6EA8FE"/>
<rect width="11.2065" height="10.8008" transform="matrix(0.866025 0.5 0 1 0 6.19305)" fill="#CFE2FF"/>
<rect width="11.2065" height="10.8994" transform="matrix(0.866025 -0.5 0 1 10.2949 11.7963)" fill="#CFE2FF"/>
<g filter="url(#filter0_d_12_2)">
<path d="M13.831 10.7859C12.1056 9.87038 10.8521 7.9989 10.5 5.73696C10.1479 7.9989 8.88733 9.87038 7.16902 10.7859C6.83099 10.961 6 11.237 6 11.237C6 11.237 6.83099 11.513 7.16902 11.688C8.89437 12.6035 10.1479 14.475 10.5 16.737C10.8521 14.475 12.1127 12.6035 13.831 11.688C14.169 11.513 15 11.237 15 11.237C15 11.237 14.169 10.9677 13.831 10.7859Z" fill="#FFE69C"/>
</g>
<defs>
<filter id="filter0_d_12_2" x="2" y="5.73696" width="17" height="19" filterUnits="userSpaceOnUse" color-interpolation-filters="sRGB">
<feFlood flood-opacity="0" result="BackgroundImageFix"/>
<feColorMatrix in="SourceAlpha" type="matrix" values="0 0 0 0 0 0 0 0 0 0 0 0 0 0 0 0 0 0 127 0" result="hardAlpha"/>
<feOffset dy="4"/>
<feGaussianBlur stdDeviation="2"/>
<feComposite in2="hardAlpha" operator="out"/>
<feColorMatrix type="matrix" values="0 0 0 0 0 0 0 0 0 0 0 0 0 0 0 0 0 0 0.25 0"/>
<feBlend mode="normal" in2="BackgroundImageFix" result="effect1_dropShadow_12_2"/>
<feBlend mode="normal" in="SourceGraphic" in2="effect1_dropShadow_12_2" result="shape"/>
</filter>
</defs>
</svg>
